<?xml version="1.0" encoding="UTF-8" standalone="no"?>
<!DOCTYPE svg PUBLIC "-//W3C//DTD SVG 1.1//EN"
 "http://www.w3.org/Graphics/SVG/1.1/DTD/svg11.dtd">
<!-- Generated by graphviz version 2.47.0 (20210316.0004)
 -->
<!-- Title: dependencies Pages: 1 -->
<svg width="6500pt" height="284pt"
 viewBox="0.00 0.00 6500.00 284.00" xmlns="http://www.w3.org/2000/svg" xmlns:xlink="http://www.w3.org/1999/xlink">
<g id="graph0" class="graph" transform="scale(1 1) rotate(0) translate(4 280)">
<title>dependencies</title>
<polygon fill="white" stroke="transparent" points="-4,4 -4,-280 6496,-280 6496,4 -4,4"/>
<text text-anchor="start" x="3225.01" y="-42.4" font-family="Times-12" font-weight="bold" font-size="14.00">Legend</text>
<polygon fill="#ffffb3" stroke="transparent" points="3012,-10 3012,-30 3032,-30 3032,-10 3012,-10"/>
<text text-anchor="start" x="3035.63" y="-15.4" font-family="Times-12" font-size="14.00"> &#160;Declarations</text>
<polygon fill="#8dd3c7" stroke="transparent" points="3125,-10 3125,-30 3145,-30 3145,-10 3125,-10"/>
<text text-anchor="start" x="3148.73" y="-15.4" font-family="Times-12" font-size="14.00"> &#160;Module</text>
<polygon fill="#80b1d3" stroke="transparent" points="3211,-10 3211,-30 3231,-30 3231,-10 3211,-10"/>
<text text-anchor="start" x="3234.78" y="-15.4" font-family="Times-12" font-size="14.00"> &#160;Bootstrap</text>
<polygon fill="#fdb462" stroke="transparent" points="3308,-10 3308,-30 3328,-30 3328,-10 3308,-10"/>
<text text-anchor="start" x="3331.67" y="-15.4" font-family="Times-12" font-size="14.00"> &#160;Providers</text>
<polygon fill="#fb8072" stroke="transparent" points="3404,-10 3404,-30 3424,-30 3424,-10 3404,-10"/>
<text text-anchor="start" x="3427.73" y="-15.4" font-family="Times-12" font-size="14.00"> &#160;Exports</text>
<g id="clust1" class="cluster">
<title>cluster_AppModule</title>
<polygon fill="none" stroke="black" stroke-dasharray="1,5" points="8,-70 8,-268 6484,-268 6484,-70 8,-70"/>
</g>
<g id="clust2" class="cluster">
<title>cluster_AppModule_declarations</title>
<polygon fill="none" stroke="black" points="406,-78 406,-130 6476,-130 6476,-78 406,-78"/>
</g>
<g id="clust37" class="cluster">
<title>cluster_AppModule_imports</title>
<polygon fill="none" stroke="black" points="254,-78 254,-130 398,-130 398,-78 254,-78"/>
</g>
<g id="clust38" class="cluster">
<title>cluster_AppModule_exports</title>
<polygon fill="none" stroke="black" points="3154,-208 3154,-260 3510,-260 3510,-208 3154,-208"/>
</g>
<g id="clust39" class="cluster">
<title>cluster_AppModule_bootstrap</title>
<polygon fill="none" stroke="black" points="3518,-208 3518,-260 3642,-260 3642,-208 3518,-208"/>
</g>
<g id="clust40" class="cluster">
<title>cluster_AppModule_providers</title>
<polygon fill="none" stroke="black" points="16,-78 16,-130 246,-130 246,-78 16,-78"/>
</g>
<!-- AddAuthorComponent -->
<g id="node1" class="node">
<title>AddAuthorComponent</title>
<polygon fill="#ffffb3" stroke="black" points="6467.6,-122 6322.4,-122 6322.4,-86 6467.6,-86 6467.6,-122"/>
<text text-anchor="middle" x="6395" y="-99.8" font-family="Times,serif" font-size="14.00">AddAuthorComponent</text>
</g>
<!-- AppModule -->
<g id="node35" class="node">
<title>AppModule</title>
<polygon fill="#8dd3c7" stroke="black" points="3471.66,-187 3468.66,-191 3447.66,-191 3444.66,-187 3388.34,-187 3388.34,-151 3471.66,-151 3471.66,-187"/>
<text text-anchor="middle" x="3430" y="-164.8" font-family="Times,serif" font-size="14.00">AppModule</text>
</g>
<!-- AddAuthorComponent&#45;&gt;AppModule -->
<g id="edge1" class="edge">
<title>AddAuthorComponent&#45;&gt;AppModule</title>
<path fill="none" stroke="black" d="M6395,-122.15C6395,-145.76 6395,-184 6395,-184 6395,-184 3481.91,-184 3481.91,-184"/>
<polygon fill="black" stroke="black" points="3481.91,-180.5 3471.91,-184 3481.91,-187.5 3481.91,-180.5"/>
</g>
<!-- AddAuthorFormComponent -->
<g id="node2" class="node">
<title>AddAuthorFormComponent</title>
<polygon fill="#ffffb3" stroke="black" points="6304.93,-122 6129.07,-122 6129.07,-86 6304.93,-86 6304.93,-122"/>
<text text-anchor="middle" x="6217" y="-99.8" font-family="Times,serif" font-size="14.00">AddAuthorFormComponent</text>
</g>
<!-- AddAuthorFormComponent&#45;&gt;AppModule -->
<g id="edge2" class="edge">
<title>AddAuthorFormComponent&#45;&gt;AppModule</title>
<path fill="none" stroke="black" d="M6217,-122.09C6217,-145.13 6217,-182 6217,-182 6217,-182 3481.83,-182 3481.83,-182"/>
<polygon fill="black" stroke="black" points="3481.83,-178.5 3471.83,-182 3481.83,-185.5 3481.83,-178.5"/>
</g>
<!-- AddAuthorHaikuComponent -->
<g id="node3" class="node">
<title>AddAuthorHaikuComponent</title>
<polygon fill="#ffffb3" stroke="black" points="6111.81,-122 5932.19,-122 5932.19,-86 6111.81,-86 6111.81,-122"/>
<text text-anchor="middle" x="6022" y="-99.8" font-family="Times,serif" font-size="14.00">AddAuthorHaikuComponent</text>
</g>
<!-- AddAuthorHaikuComponent&#45;&gt;AppModule -->
<g id="edge3" class="edge">
<title>AddAuthorHaikuComponent&#45;&gt;AppModule</title>
<path fill="none" stroke="black" d="M6022,-122.01C6022,-144.49 6022,-180 6022,-180 6022,-180 3481.76,-180 3481.76,-180"/>
<polygon fill="black" stroke="black" points="3481.76,-176.5 3471.76,-180 3481.76,-183.5 3481.76,-176.5"/>
</g>
<!-- AddAuthorHaikuFormComponent -->
<g id="node4" class="node">
<title>AddAuthorHaikuFormComponent</title>
<polygon fill="#ffffb3" stroke="black" points="5914.64,-122 5705.36,-122 5705.36,-86 5914.64,-86 5914.64,-122"/>
<text text-anchor="middle" x="5810" y="-99.8" font-family="Times,serif" font-size="14.00">AddAuthorHaikuFormComponent</text>
</g>
<!-- AddAuthorHaikuFormComponent&#45;&gt;AppModule -->
<g id="edge4" class="edge">
<title>AddAuthorHaikuFormComponent&#45;&gt;AppModule</title>
<path fill="none" stroke="black" d="M5810,-122.29C5810,-144.21 5810,-178 5810,-178 5810,-178 3481.81,-178 3481.81,-178"/>
<polygon fill="black" stroke="black" points="3481.81,-174.5 3471.81,-178 3481.81,-181.5 3481.81,-174.5"/>
</g>
<!-- AddUserHaikuComponent -->
<g id="node5" class="node">
<title>AddUserHaikuComponent</title>
<polygon fill="#ffffb3" stroke="black" points="5687.08,-122 5520.92,-122 5520.92,-86 5687.08,-86 5687.08,-122"/>
<text text-anchor="middle" x="5604" y="-99.8" font-family="Times,serif" font-size="14.00">AddUserHaikuComponent</text>
</g>
<!-- AddUserHaikuComponent&#45;&gt;AppModule -->
<g id="edge5" class="edge">
<title>AddUserHaikuComponent&#45;&gt;AppModule</title>
<path fill="none" stroke="black" d="M5604,-122.17C5604,-143.5 5604,-176 5604,-176 5604,-176 3481.97,-176 3481.97,-176"/>
<polygon fill="black" stroke="black" points="3481.97,-172.5 3471.97,-176 3481.97,-179.5 3481.97,-172.5"/>
</g>
<!-- AddUserHaikuFormComponent -->
<g id="node6" class="node">
<title>AddUserHaikuFormComponent</title>
<polygon fill="#ffffb3" stroke="black" points="5503.41,-122 5306.59,-122 5306.59,-86 5503.41,-86 5503.41,-122"/>
<text text-anchor="middle" x="5405" y="-99.8" font-family="Times,serif" font-size="14.00">AddUserHaikuFormComponent</text>
</g>
<!-- AddUserHaikuFormComponent&#45;&gt;AppModule -->
<g id="edge6" class="edge">
<title>AddUserHaikuFormComponent&#45;&gt;AppModule</title>
<path fill="none" stroke="black" d="M5405,-122.03C5405,-142.77 5405,-174 5405,-174 5405,-174 3481.71,-174 3481.71,-174"/>
<polygon fill="black" stroke="black" points="3481.71,-170.5 3471.71,-174 3481.71,-177.5 3481.71,-170.5"/>
</g>
<!-- AllAuthorHaikusComponent -->
<g id="node7" class="node">
<title>AllAuthorHaikusComponent</title>
<polygon fill="#ffffb3" stroke="black" points="5289.04,-122 5110.96,-122 5110.96,-86 5289.04,-86 5289.04,-122"/>
<text text-anchor="middle" x="5200" y="-99.8" font-family="Times,serif" font-size="14.00">AllAuthorHaikusComponent</text>
</g>
<!-- AllAuthorHaikusComponent&#45;&gt;AppModule -->
<g id="edge7" class="edge">
<title>AllAuthorHaikusComponent&#45;&gt;AppModule</title>
<path fill="none" stroke="black" d="M5200,-122.22C5200,-142.37 5200,-172 5200,-172 5200,-172 3482.01,-172 3482.01,-172"/>
<polygon fill="black" stroke="black" points="3482.01,-168.5 3472.01,-172 3482.01,-175.5 3482.01,-168.5"/>
</g>
<!-- AllAuthorsComponent -->
<g id="node8" class="node">
<title>AllAuthorsComponent</title>
<polygon fill="#ffffb3" stroke="black" points="5093.32,-122 4948.68,-122 4948.68,-86 5093.32,-86 5093.32,-122"/>
<text text-anchor="middle" x="5021" y="-99.8" font-family="Times,serif" font-size="14.00">AllAuthorsComponent</text>
</g>
<!-- AllAuthorsComponent&#45;&gt;AppModule -->
<g id="edge8" class="edge">
<title>AllAuthorsComponent&#45;&gt;AppModule</title>
<path fill="none" stroke="black" d="M5021,-122.03C5021,-141.58 5021,-170 5021,-170 5021,-170 3481.74,-170 3481.74,-170"/>
<polygon fill="black" stroke="black" points="3481.74,-166.5 3471.74,-170 3481.74,-173.5 3481.74,-166.5"/>
</g>
<!-- AllUserHaikusComponent -->
<g id="node9" class="node">
<title>AllUserHaikusComponent</title>
<polygon fill="#ffffb3" stroke="black" points="4930.8,-122 4765.2,-122 4765.2,-86 4930.8,-86 4930.8,-122"/>
<text text-anchor="middle" x="4848" y="-99.8" font-family="Times,serif" font-size="14.00">AllUserHaikusComponent</text>
</g>
<!-- AllUserHaikusComponent&#45;&gt;AppModule -->
<g id="edge9" class="edge">
<title>AllUserHaikusComponent&#45;&gt;AppModule</title>
<path fill="none" stroke="black" d="M4848,-122.11C4848,-141.34 4848,-169 4848,-169 4848,-169 3481.67,-169 3481.67,-169"/>
<polygon fill="black" stroke="black" points="3481.67,-165.5 3471.67,-169 3481.67,-172.5 3481.67,-165.5"/>
</g>
<!-- AllUsersComponent -->
<g id="node10" class="node">
<title>AllUsersComponent</title>
<polygon fill="#ffffb3" stroke="black" points="4747.59,-122 4616.41,-122 4616.41,-86 4747.59,-86 4747.59,-122"/>
<text text-anchor="middle" x="4682" y="-99.8" font-family="Times,serif" font-size="14.00">AllUsersComponent</text>
</g>
<!-- AllUsersComponent&#45;&gt;AppModule -->
<g id="edge10" class="edge">
<title>AllUsersComponent&#45;&gt;AppModule</title>
<path fill="none" stroke="black" d="M4682,-122.22C4682,-140.83 4682,-167 4682,-167 4682,-167 3482.01,-167 3482.01,-167"/>
<polygon fill="black" stroke="black" points="3482.01,-163.5 3472.01,-167 3482.01,-170.5 3482.01,-163.5"/>
</g>
<!-- AppComponent -->
<g id="node11" class="node">
<title>AppComponent</title>
<polygon fill="#ffffb3" stroke="black" points="4598.94,-122 4493.06,-122 4493.06,-86 4598.94,-86 4598.94,-122"/>
<text text-anchor="middle" x="4546" y="-99.8" font-family="Times,serif" font-size="14.00">AppComponent</text>
</g>
<!-- AppComponent&#45;&gt;AppModule -->
<g id="edge11" class="edge">
<title>AppComponent&#45;&gt;AppModule</title>
<path fill="none" stroke="black" d="M4546,-122.3C4546,-140.27 4546,-165 4546,-165 4546,-165 3481.71,-165 3481.71,-165"/>
<polygon fill="black" stroke="black" points="3481.71,-161.5 3471.71,-165 3481.71,-168.5 3481.71,-161.5"/>
</g>
<!-- FooterComponent -->
<g id="node12" class="node">
<title>FooterComponent</title>
<polygon fill="#ffffb3" stroke="black" points="4474.88,-122 4357.12,-122 4357.12,-86 4474.88,-86 4474.88,-122"/>
<text text-anchor="middle" x="4416" y="-99.8" font-family="Times,serif" font-size="14.00">FooterComponent</text>
</g>
<!-- FooterComponent&#45;&gt;AppModule -->
<g id="edge12" class="edge">
<title>FooterComponent&#45;&gt;AppModule</title>
<path fill="none" stroke="black" d="M4416,-122.02C4416,-139.37 4416,-163 4416,-163 4416,-163 3481.74,-163 3481.74,-163"/>
<polygon fill="black" stroke="black" points="3481.74,-159.5 3471.74,-163 3481.74,-166.5 3481.74,-159.5"/>
</g>
<!-- HeaderComponent -->
<g id="node13" class="node">
<title>HeaderComponent</title>
<polygon fill="#ffffb3" stroke="black" points="4338.74,-122 4217.26,-122 4217.26,-86 4338.74,-86 4338.74,-122"/>
<text text-anchor="middle" x="4278" y="-99.8" font-family="Times,serif" font-size="14.00">HeaderComponent</text>
</g>
<!-- HeaderComponent&#45;&gt;AppModule -->
<g id="edge13" class="edge">
<title>HeaderComponent&#45;&gt;AppModule</title>
<path fill="none" stroke="black" d="M4278,-122.04C4278,-138.73 4278,-161 4278,-161 4278,-161 3481.76,-161 3481.76,-161"/>
<polygon fill="black" stroke="black" points="3481.76,-157.5 3471.76,-161 3481.76,-164.5 3481.76,-157.5"/>
</g>
<!-- HomeComponent -->
<g id="node14" class="node">
<title>HomeComponent</title>
<polygon fill="#ffffb3" stroke="black" points="4198.55,-122 4083.45,-122 4083.45,-86 4198.55,-86 4198.55,-122"/>
<text text-anchor="middle" x="4141" y="-99.8" font-family="Times,serif" font-size="14.00">HomeComponent</text>
</g>
<!-- HomeComponent&#45;&gt;AppModule -->
<g id="edge14" class="edge">
<title>HomeComponent&#45;&gt;AppModule</title>
<path fill="none" stroke="black" d="M4141,-122.01C4141,-138.05 4141,-159 4141,-159 4141,-159 3481.82,-159 3481.82,-159"/>
<polygon fill="black" stroke="black" points="3481.82,-155.5 3471.82,-159 3481.82,-162.5 3481.82,-155.5"/>
</g>
<!-- IsAuthorizedDirective -->
<g id="node15" class="node">
<title>IsAuthorizedDirective</title>
<polygon fill="#ffffb3" stroke="black" points="4065.67,-122 3924.33,-122 3924.33,-86 4065.67,-86 4065.67,-122"/>
<text text-anchor="middle" x="3995" y="-99.8" font-family="Times,serif" font-size="14.00">IsAuthorizedDirective</text>
</g>
<!-- IsAuthorizedDirective&#45;&gt;AppModule -->
<g id="edge15" class="edge">
<title>IsAuthorizedDirective&#45;&gt;AppModule</title>
<path fill="none" stroke="black" d="M3995,-122.24C3995,-137.57 3995,-157 3995,-157 3995,-157 3482.01,-157 3482.01,-157"/>
<polygon fill="black" stroke="black" points="3482.01,-153.5 3472.01,-157 3482.01,-160.5 3482.01,-153.5"/>
</g>
<!-- IsUnAuthenticatedDirective -->
<g id="node16" class="node">
<title>IsUnAuthenticatedDirective</title>
<polygon fill="#ffffb3" stroke="black" points="3906.82,-122 3733.18,-122 3733.18,-86 3906.82,-86 3906.82,-122"/>
<text text-anchor="middle" x="3820" y="-99.8" font-family="Times,serif" font-size="14.00">IsUnAuthenticatedDirective</text>
</g>
<!-- IsUnAuthenticatedDirective&#45;&gt;AppModule -->
<g id="edge16" class="edge">
<title>IsUnAuthenticatedDirective&#45;&gt;AppModule</title>
<path fill="none" stroke="black" d="M3820,-122.12C3820,-136.78 3820,-155 3820,-155 3820,-155 3481.74,-155 3481.74,-155"/>
<polygon fill="black" stroke="black" points="3481.74,-151.5 3471.74,-155 3481.74,-158.5 3481.74,-151.5"/>
</g>
<!-- LoginComponent -->
<g id="node17" class="node">
<title>LoginComponent</title>
<polygon fill="#ffffb3" stroke="black" points="3715.28,-122 3600.72,-122 3600.72,-86 3715.28,-86 3715.28,-122"/>
<text text-anchor="middle" x="3658" y="-99.8" font-family="Times,serif" font-size="14.00">LoginComponent</text>
</g>
<!-- LoginComponent&#45;&gt;AppModule -->
<g id="edge17" class="edge">
<title>LoginComponent&#45;&gt;AppModule</title>
<path fill="none" stroke="black" d="M3617.54,-122.25C3617.54,-136.18 3617.54,-153 3617.54,-153 3617.54,-153 3482.09,-153 3482.09,-153"/>
<polygon fill="black" stroke="black" points="3482.09,-149.5 3472.09,-153 3482.09,-156.5 3482.09,-149.5"/>
</g>
<!-- LoginFormComponent -->
<g id="node18" class="node">
<title>LoginFormComponent</title>
<polygon fill="#ffffb3" stroke="black" points="3582.61,-122 3437.39,-122 3437.39,-86 3582.61,-86 3582.61,-122"/>
<text text-anchor="middle" x="3510" y="-99.8" font-family="Times,serif" font-size="14.00">LoginFormComponent</text>
</g>
<!-- LoginFormComponent&#45;&gt;AppModule -->
<g id="edge18" class="edge">
<title>LoginFormComponent&#45;&gt;AppModule</title>
<path fill="none" stroke="black" d="M3454.64,-122.11C3454.64,-122.11 3454.64,-140.99 3454.64,-140.99"/>
<polygon fill="black" stroke="black" points="3451.14,-140.99 3454.64,-150.99 3458.14,-140.99 3451.14,-140.99"/>
</g>
<!-- NotFoundComponent -->
<g id="node19" class="node">
<title>NotFoundComponent</title>
<polygon fill="#ffffb3" stroke="black" points="3419.11,-122 3280.89,-122 3280.89,-86 3419.11,-86 3419.11,-122"/>
<text text-anchor="middle" x="3350" y="-99.8" font-family="Times,serif" font-size="14.00">NotFoundComponent</text>
</g>
<!-- NotFoundComponent&#45;&gt;AppModule -->
<g id="edge19" class="edge">
<title>NotFoundComponent&#45;&gt;AppModule</title>
<path fill="none" stroke="black" d="M3403.61,-122.11C3403.61,-122.11 3403.61,-140.99 3403.61,-140.99"/>
<polygon fill="black" stroke="black" points="3400.11,-140.99 3403.61,-150.99 3407.11,-140.99 3400.11,-140.99"/>
</g>
<!-- ProfileComponent -->
<g id="node20" class="node">
<title>ProfileComponent</title>
<polygon fill="#ffffb3" stroke="black" points="3262.93,-122 3143.07,-122 3143.07,-86 3262.93,-86 3262.93,-122"/>
<text text-anchor="middle" x="3203" y="-99.8" font-family="Times,serif" font-size="14.00">ProfileComponent</text>
</g>
<!-- ProfileComponent&#45;&gt;AppModule -->
<g id="edge20" class="edge">
<title>ProfileComponent&#45;&gt;AppModule</title>
<path fill="none" stroke="black" d="M3212.53,-122.25C3212.53,-136.18 3212.53,-153 3212.53,-153 3212.53,-153 3378.33,-153 3378.33,-153"/>
<polygon fill="black" stroke="black" points="3378.33,-156.5 3388.33,-153 3378.33,-149.5 3378.33,-156.5"/>
</g>
<!-- RegisterComponent -->
<g id="node21" class="node">
<title>RegisterComponent</title>
<polygon fill="#ffffb3" stroke="black" points="3124.98,-122 2997.02,-122 2997.02,-86 3124.98,-86 3124.98,-122"/>
<text text-anchor="middle" x="3061" y="-99.8" font-family="Times,serif" font-size="14.00">RegisterComponent</text>
</g>
<!-- RegisterComponent&#45;&gt;AppModule -->
<g id="edge21" class="edge">
<title>RegisterComponent&#45;&gt;AppModule</title>
<path fill="none" stroke="black" d="M3061,-122.12C3061,-136.78 3061,-155 3061,-155 3061,-155 3378.03,-155 3378.03,-155"/>
<polygon fill="black" stroke="black" points="3378.03,-158.5 3388.03,-155 3378.03,-151.5 3378.03,-158.5"/>
</g>
<!-- RegisterFormComponent -->
<g id="node22" class="node">
<title>RegisterFormComponent</title>
<polygon fill="#ffffb3" stroke="black" points="2979.32,-122 2820.68,-122 2820.68,-86 2979.32,-86 2979.32,-122"/>
<text text-anchor="middle" x="2900" y="-99.8" font-family="Times,serif" font-size="14.00">RegisterFormComponent</text>
</g>
<!-- RegisterFormComponent&#45;&gt;AppModule -->
<g id="edge22" class="edge">
<title>RegisterFormComponent&#45;&gt;AppModule</title>
<path fill="none" stroke="black" d="M2900,-122.24C2900,-137.57 2900,-157 2900,-157 2900,-157 3377.97,-157 3377.97,-157"/>
<polygon fill="black" stroke="black" points="3377.97,-160.5 3387.97,-157 3377.97,-153.5 3377.97,-160.5"/>
</g>
<!-- SingleAuthorComponent -->
<g id="node23" class="node">
<title>SingleAuthorComponent</title>
<polygon fill="#ffffb3" stroke="black" points="2802.27,-122 2645.73,-122 2645.73,-86 2802.27,-86 2802.27,-122"/>
<text text-anchor="middle" x="2724" y="-99.8" font-family="Times,serif" font-size="14.00">SingleAuthorComponent</text>
</g>
<!-- SingleAuthorComponent&#45;&gt;AppModule -->
<g id="edge23" class="edge">
<title>SingleAuthorComponent&#45;&gt;AppModule</title>
<path fill="none" stroke="black" d="M2724,-122.01C2724,-138.05 2724,-159 2724,-159 2724,-159 3378.21,-159 3378.21,-159"/>
<polygon fill="black" stroke="black" points="3378.21,-162.5 3388.21,-159 3378.21,-155.5 3378.21,-162.5"/>
</g>
<!-- SingleAuthorHaikuComponent -->
<g id="node24" class="node">
<title>SingleAuthorHaikuComponent</title>
<polygon fill="#ffffb3" stroke="black" points="2627.48,-122 2436.52,-122 2436.52,-86 2627.48,-86 2627.48,-122"/>
<text text-anchor="middle" x="2532" y="-99.8" font-family="Times,serif" font-size="14.00">SingleAuthorHaikuComponent</text>
</g>
<!-- SingleAuthorHaikuComponent&#45;&gt;AppModule -->
<g id="edge24" class="edge">
<title>SingleAuthorHaikuComponent&#45;&gt;AppModule</title>
<path fill="none" stroke="black" d="M2532,-122.04C2532,-138.73 2532,-161 2532,-161 2532,-161 3378.19,-161 3378.19,-161"/>
<polygon fill="black" stroke="black" points="3378.19,-164.5 3388.19,-161 3378.19,-157.5 3378.19,-164.5"/>
</g>
<!-- SingleUserComponent -->
<g id="node25" class="node">
<title>SingleUserComponent</title>
<polygon fill="#ffffb3" stroke="black" points="2418.54,-122 2275.46,-122 2275.46,-86 2418.54,-86 2418.54,-122"/>
<text text-anchor="middle" x="2347" y="-99.8" font-family="Times,serif" font-size="14.00">SingleUserComponent</text>
</g>
<!-- SingleUserComponent&#45;&gt;AppModule -->
<g id="edge25" class="edge">
<title>SingleUserComponent&#45;&gt;AppModule</title>
<path fill="none" stroke="black" d="M2347,-122.02C2347,-139.37 2347,-163 2347,-163 2347,-163 3378.21,-163 3378.21,-163"/>
<polygon fill="black" stroke="black" points="3378.21,-166.5 3388.21,-163 3378.21,-159.5 3378.21,-166.5"/>
</g>
<!-- SingleUserHaikuComponent -->
<g id="node26" class="node">
<title>SingleUserHaikuComponent</title>
<polygon fill="#ffffb3" stroke="black" points="2256.75,-122 2079.25,-122 2079.25,-86 2256.75,-86 2256.75,-122"/>
<text text-anchor="middle" x="2168" y="-99.8" font-family="Times,serif" font-size="14.00">SingleUserHaikuComponent</text>
</g>
<!-- SingleUserHaikuComponent&#45;&gt;AppModule -->
<g id="edge26" class="edge">
<title>SingleUserHaikuComponent&#45;&gt;AppModule</title>
<path fill="none" stroke="black" d="M2168,-122.3C2168,-140.27 2168,-165 2168,-165 2168,-165 3378.01,-165 3378.01,-165"/>
<polygon fill="black" stroke="black" points="3378.01,-168.5 3388.01,-165 3378.01,-161.5 3378.01,-168.5"/>
</g>
<!-- UpdateAuthorComponent -->
<g id="node27" class="node">
<title>UpdateAuthorComponent</title>
<polygon fill="#ffffb3" stroke="black" points="2060.92,-122 1899.08,-122 1899.08,-86 2060.92,-86 2060.92,-122"/>
<text text-anchor="middle" x="1980" y="-99.8" font-family="Times,serif" font-size="14.00">UpdateAuthorComponent</text>
</g>
<!-- UpdateAuthorComponent&#45;&gt;AppModule -->
<g id="edge27" class="edge">
<title>UpdateAuthorComponent&#45;&gt;AppModule</title>
<path fill="none" stroke="black" d="M1980,-122.22C1980,-140.83 1980,-167 1980,-167 1980,-167 3378.17,-167 3378.17,-167"/>
<polygon fill="black" stroke="black" points="3378.17,-170.5 3388.17,-167 3378.17,-163.5 3378.17,-170.5"/>
</g>
<!-- UpdateAuthorFormComponent -->
<g id="node28" class="node">
<title>UpdateAuthorFormComponent</title>
<polygon fill="#ffffb3" stroke="black" points="1880.75,-122 1689.25,-122 1689.25,-86 1880.75,-86 1880.75,-122"/>
<text text-anchor="middle" x="1785" y="-99.8" font-family="Times,serif" font-size="14.00">UpdateAuthorFormComponent</text>
</g>
<!-- UpdateAuthorFormComponent&#45;&gt;AppModule -->
<g id="edge28" class="edge">
<title>UpdateAuthorFormComponent&#45;&gt;AppModule</title>
<path fill="none" stroke="black" d="M1785,-122.11C1785,-141.34 1785,-169 1785,-169 1785,-169 3378.1,-169 3378.1,-169"/>
<polygon fill="black" stroke="black" points="3378.1,-172.5 3388.1,-169 3378.1,-165.5 3378.1,-172.5"/>
</g>
<!-- UpdateAuthorHaikuComponent -->
<g id="node29" class="node">
<title>UpdateAuthorHaikuComponent</title>
<polygon fill="#ffffb3" stroke="black" points="1670.63,-122 1475.37,-122 1475.37,-86 1670.63,-86 1670.63,-122"/>
<text text-anchor="middle" x="1573" y="-99.8" font-family="Times,serif" font-size="14.00">UpdateAuthorHaikuComponent</text>
</g>
<!-- UpdateAuthorHaikuComponent&#45;&gt;AppModule -->
<g id="edge29" class="edge">
<title>UpdateAuthorHaikuComponent&#45;&gt;AppModule</title>
<path fill="none" stroke="black" d="M1573,-122.03C1573,-141.58 1573,-170 1573,-170 1573,-170 3378.17,-170 3378.17,-170"/>
<polygon fill="black" stroke="black" points="3378.17,-173.5 3388.17,-170 3378.17,-166.5 3378.17,-173.5"/>
</g>
<!-- UpdateAuthorHaikuFormComponent -->
<g id="node30" class="node">
<title>UpdateAuthorHaikuFormComponent</title>
<polygon fill="#ffffb3" stroke="black" points="1456.96,-122 1231.04,-122 1231.04,-86 1456.96,-86 1456.96,-122"/>
<text text-anchor="middle" x="1344" y="-99.8" font-family="Times,serif" font-size="14.00">UpdateAuthorHaikuFormComponent</text>
</g>
<!-- UpdateAuthorHaikuFormComponent&#45;&gt;AppModule -->
<g id="edge30" class="edge">
<title>UpdateAuthorHaikuFormComponent&#45;&gt;AppModule</title>
<path fill="none" stroke="black" d="M1344,-122.22C1344,-142.37 1344,-172 1344,-172 1344,-172 3378.33,-172 3378.33,-172"/>
<polygon fill="black" stroke="black" points="3378.33,-175.5 3388.33,-172 3378.33,-168.5 3378.33,-175.5"/>
</g>
<!-- UpdateProfileComponent -->
<g id="node31" class="node">
<title>UpdateProfileComponent</title>
<polygon fill="#ffffb3" stroke="black" points="1212.86,-122 1053.14,-122 1053.14,-86 1212.86,-86 1212.86,-122"/>
<text text-anchor="middle" x="1133" y="-99.8" font-family="Times,serif" font-size="14.00">UpdateProfileComponent</text>
</g>
<!-- UpdateProfileComponent&#45;&gt;AppModule -->
<g id="edge31" class="edge">
<title>UpdateProfileComponent&#45;&gt;AppModule</title>
<path fill="none" stroke="black" d="M1133,-122.03C1133,-142.77 1133,-174 1133,-174 1133,-174 3378.17,-174 3378.17,-174"/>
<polygon fill="black" stroke="black" points="3378.17,-177.5 3388.17,-174 3378.17,-170.5 3378.17,-177.5"/>
</g>
<!-- UpdateProfileFormComponent -->
<g id="node32" class="node">
<title>UpdateProfileFormComponent</title>
<polygon fill="#ffffb3" stroke="black" points="1035.19,-122 844.81,-122 844.81,-86 1035.19,-86 1035.19,-122"/>
<text text-anchor="middle" x="940" y="-99.8" font-family="Times,serif" font-size="14.00">UpdateProfileFormComponent</text>
</g>
<!-- UpdateProfileFormComponent&#45;&gt;AppModule -->
<g id="edge32" class="edge">
<title>UpdateProfileFormComponent&#45;&gt;AppModule</title>
<path fill="none" stroke="black" d="M940,-122.17C940,-143.5 940,-176 940,-176 940,-176 3378.09,-176 3378.09,-176"/>
<polygon fill="black" stroke="black" points="3378.09,-179.5 3388.09,-176 3378.09,-172.5 3378.09,-179.5"/>
</g>
<!-- UpdateUserHaikuComponent -->
<g id="node33" class="node">
<title>UpdateUserHaikuComponent</title>
<polygon fill="#ffffb3" stroke="black" points="827.4,-122 644.6,-122 644.6,-86 827.4,-86 827.4,-122"/>
<text text-anchor="middle" x="736" y="-99.8" font-family="Times,serif" font-size="14.00">UpdateUserHaikuComponent</text>
</g>
<!-- UpdateUserHaikuComponent&#45;&gt;AppModule -->
<g id="edge33" class="edge">
<title>UpdateUserHaikuComponent&#45;&gt;AppModule</title>
<path fill="none" stroke="black" d="M736,-122.29C736,-144.21 736,-178 736,-178 736,-178 3378.22,-178 3378.22,-178"/>
<polygon fill="black" stroke="black" points="3378.22,-181.5 3388.22,-178 3378.22,-174.5 3378.22,-181.5"/>
</g>
<!-- UpdateUserHaikuFormComponent -->
<g id="node34" class="node">
<title>UpdateUserHaikuFormComponent</title>
<polygon fill="#ffffb3" stroke="black" points="626.23,-122 413.77,-122 413.77,-86 626.23,-86 626.23,-122"/>
<text text-anchor="middle" x="520" y="-99.8" font-family="Times,serif" font-size="14.00">UpdateUserHaikuFormComponent</text>
</g>
<!-- UpdateUserHaikuFormComponent&#45;&gt;AppModule -->
<g id="edge34" class="edge">
<title>UpdateUserHaikuFormComponent&#45;&gt;AppModule</title>
<path fill="none" stroke="black" d="M520,-122.01C520,-144.49 520,-180 520,-180 520,-180 3378.3,-180 3378.3,-180"/>
<polygon fill="black" stroke="black" points="3378.3,-183.5 3388.3,-180 3378.3,-176.5 3378.3,-183.5"/>
</g>
<!-- IsAuthorizedDirective  -->
<g id="node37" class="node">
<title>IsAuthorizedDirective </title>
<polygon fill="#fb8072" stroke="black" points="3502.17,-252 3357.83,-252 3357.83,-216 3502.17,-216 3502.17,-252"/>
<text text-anchor="middle" x="3430" y="-229.8" font-family="Times,serif" font-size="14.00">IsAuthorizedDirective </text>
</g>
<!-- AppModule&#45;&gt;IsAuthorizedDirective  -->
<g id="edge36" class="edge">
<title>AppModule&#45;&gt;IsAuthorizedDirective </title>
<path fill="none" stroke="black" stroke-dasharray="5,2" d="M3430,-187.11C3430,-187.11 3430,-205.99 3430,-205.99"/>
<polygon fill="black" stroke="black" points="3426.5,-205.99 3430,-215.99 3433.5,-205.99 3426.5,-205.99"/>
</g>
<!-- IsUnAuthenticatedDirective  -->
<g id="node38" class="node">
<title>IsUnAuthenticatedDirective </title>
<polygon fill="#fb8072" stroke="black" points="3339.82,-252 3162.18,-252 3162.18,-216 3339.82,-216 3339.82,-252"/>
<text text-anchor="middle" x="3251" y="-229.8" font-family="Times,serif" font-size="14.00">IsUnAuthenticatedDirective </text>
</g>
<!-- AppModule&#45;&gt;IsUnAuthenticatedDirective  -->
<g id="edge37" class="edge">
<title>AppModule&#45;&gt;IsUnAuthenticatedDirective </title>
<path fill="none" stroke="black" stroke-dasharray="5,2" d="M3388.14,-186C3353.62,-186 3310.3,-186 3310.3,-186 3310.3,-186 3310.3,-205.85 3310.3,-205.85"/>
<polygon fill="black" stroke="black" points="3306.8,-205.85 3310.3,-215.85 3313.8,-205.85 3306.8,-205.85"/>
</g>
<!-- AppComponent  -->
<g id="node39" class="node">
<title>AppComponent </title>
<polygon fill="#80b1d3" stroke="black" points="3634.44,-252 3525.56,-252 3525.56,-216 3634.44,-216 3634.44,-252"/>
<text text-anchor="middle" x="3580" y="-229.8" font-family="Times,serif" font-size="14.00">AppComponent </text>
</g>
<!-- AppModule&#45;&gt;AppComponent  -->
<g id="edge38" class="edge">
<title>AppModule&#45;&gt;AppComponent </title>
<path fill="none" stroke="black" stroke-dasharray="1,5" d="M3472,-186C3507.98,-186 3554.04,-186 3554.04,-186 3554.04,-186 3554.04,-205.85 3554.04,-205.85"/>
<polygon fill="black" stroke="black" points="3550.54,-205.85 3554.04,-215.85 3557.54,-205.85 3550.54,-205.85"/>
</g>
<!-- AppRoutingModule -->
<g id="node36" class="node">
<title>AppRoutingModule</title>
<polygon fill="#8dd3c7" stroke="black" points="390.27,-122 387.27,-126 366.27,-126 363.27,-122 261.73,-122 261.73,-86 390.27,-86 390.27,-122"/>
<text text-anchor="middle" x="326" y="-99.8" font-family="Times,serif" font-size="14.00">AppRoutingModule</text>
</g>
<!-- AppRoutingModule&#45;&gt;AppModule -->
<g id="edge35" class="edge">
<title>AppRoutingModule&#45;&gt;AppModule</title>
<path fill="none" stroke="black" d="M326,-122.09C326,-145.13 326,-182 326,-182 326,-182 3378.18,-182 3378.18,-182"/>
<polygon fill="black" stroke="black" points="3378.18,-185.5 3388.18,-182 3378.18,-178.5 3378.18,-185.5"/>
</g>
<!-- AuthorizationInterceptor -->
<g id="node40" class="node">
<title>AuthorizationInterceptor</title>
<ellipse fill="#fdb462" stroke="black" cx="131" cy="-104" rx="107.06" ry="18"/>
<text text-anchor="middle" x="131" y="-99.8" font-family="Times,serif" font-size="14.00">AuthorizationInterceptor</text>
</g>
<!-- AuthorizationInterceptor&#45;&gt;AppModule -->
<g id="edge39" class="edge">
<title>AuthorizationInterceptor&#45;&gt;AppModule</title>
<path fill="none" stroke="black" d="M131,-122.15C131,-145.76 131,-184 131,-184 131,-184 3378.29,-184 3378.29,-184"/>
<polygon fill="black" stroke="black" points="3378.29,-187.5 3388.29,-184 3378.29,-180.5 3378.29,-187.5"/>
</g>
</g>
</svg>
