<?xml version="1.0" encoding="UTF-8" standalone="no"?>
<!DOCTYPE svg PUBLIC "-//W3C//DTD SVG 1.1//EN"
 "http://www.w3.org/Graphics/SVG/1.1/DTD/svg11.dtd">
<!-- Generated by graphviz version 2.47.0 (20210316.0004)
 -->
<!-- Title: dependencies Pages: 1 -->
<svg width="6500pt" height="284pt"
 viewBox="0.00 0.00 6500.00 284.00" xmlns="http://www.w3.org/2000/svg" xmlns:xlink="http://www.w3.org/1999/xlink">
<g id="graph0" class="graph" transform="scale(1 1) rotate(0) translate(4 280)">
<title>dependencies</title>
<polygon fill="white" stroke="transparent" points="-4,4 -4,-280 6496,-280 6496,4 -4,4"/>
<text text-anchor="start" x="3225.01" y="-42.4" font-family="Times-12" font-weight="bold" font-size="14.00">Legend</text>
<polygon fill="#ffffb3" stroke="transparent" points="3012,-10 3012,-30 3032,-30 3032,-10 3012,-10"/>
<text text-anchor="start" x="3035.63" y="-15.4" font-family="Times-12" font-size="14.00"> &#160;Declarations</text>
<polygon fill="#8dd3c7" stroke="transparent" points="3125,-10 3125,-30 3145,-30 3145,-10 3125,-10"/>
<text text-anchor="start" x="3148.73" y="-15.4" font-family="Times-12" font-size="14.00"> &#160;Module</text>
<polygon fill="#80b1d3" stroke="transparent" points="3211,-10 3211,-30 3231,-30 3231,-10 3211,-10"/>
<text text-anchor="start" x="3234.78" y="-15.4" font-family="Times-12" font-size="14.00"> &#160;Bootstrap</text>
<polygon fill="#fdb462" stroke="transparent" points="3308,-10 3308,-30 3328,-30 3328,-10 3308,-10"/>
<text text-anchor="start" x="3331.67" y="-15.4" font-family="Times-12" font-size="14.00"> &#160;Providers</text>
<polygon fill="#fb8072" stroke="transparent" points="3404,-10 3404,-30 3424,-30 3424,-10 3404,-10"/>
<text text-anchor="start" x="3427.73" y="-15.4" font-family="Times-12" font-size="14.00"> &#160;Exports</text>
<g id="clust1" class="cluster">
<title>cluster_AppModule</title>
<polygon fill="none" stroke="black" stroke-dasharray="1,5" points="8,-70 8,-268 6484,-268 6484,-70 8,-70"/>
</g>
<g id="clust39" class="cluster">
<title>cluster_AppModule_bootstrap</title>
<polygon fill="none" stroke="black" points="3437,-208 3437,-260 3561,-260 3561,-208 3437,-208"/>
</g>
<g id="clust40" class="cluster">
<title>cluster_AppModule_providers</title>
<polygon fill="none" stroke="black" points="6246,-78 6246,-130 6476,-130 6476,-78 6246,-78"/>
</g>
<g id="clust38" class="cluster">
<title>cluster_AppModule_exports</title>
<polygon fill="none" stroke="black" points="3073,-208 3073,-260 3429,-260 3429,-208 3073,-208"/>
</g>
<g id="clust37" class="cluster">
<title>cluster_AppModule_imports</title>
<polygon fill="none" stroke="black" points="6094,-78 6094,-130 6238,-130 6238,-78 6094,-78"/>
</g>
<g id="clust2" class="cluster">
<title>cluster_AppModule_declarations</title>
<polygon fill="none" stroke="black" points="16,-78 16,-130 6086,-130 6086,-78 16,-78"/>
</g>
<!-- AddAuthorComponent -->
<g id="node1" class="node">
<title>AddAuthorComponent</title>
<polygon fill="#ffffb3" stroke="black" points="6077.6,-122 5932.4,-122 5932.4,-86 6077.6,-86 6077.6,-122"/>
<text text-anchor="middle" x="6005" y="-99.8" font-family="Times,serif" font-size="14.00">AddAuthorComponent</text>
</g>
<!-- AppModule -->
<g id="node35" class="node">
<title>AppModule</title>
<polygon fill="#8dd3c7" stroke="black" points="3390.66,-187 3387.66,-191 3366.66,-191 3363.66,-187 3307.34,-187 3307.34,-151 3390.66,-151 3390.66,-187"/>
<text text-anchor="middle" x="3349" y="-164.8" font-family="Times,serif" font-size="14.00">AppModule</text>
</g>
<!-- AddAuthorComponent&#45;&gt;AppModule -->
<g id="edge1" class="edge">
<title>AddAuthorComponent&#45;&gt;AppModule</title>
<path fill="none" stroke="black" d="M6005,-122.01C6005,-144.49 6005,-180 6005,-180 6005,-180 3400.72,-180 3400.72,-180"/>
<polygon fill="black" stroke="black" points="3400.72,-176.5 3390.72,-180 3400.72,-183.5 3400.72,-176.5"/>
</g>
<!-- AddAuthorFormComponent -->
<g id="node2" class="node">
<title>AddAuthorFormComponent</title>
<polygon fill="#ffffb3" stroke="black" points="5914.93,-122 5739.07,-122 5739.07,-86 5914.93,-86 5914.93,-122"/>
<text text-anchor="middle" x="5827" y="-99.8" font-family="Times,serif" font-size="14.00">AddAuthorFormComponent</text>
</g>
<!-- AddAuthorFormComponent&#45;&gt;AppModule -->
<g id="edge2" class="edge">
<title>AddAuthorFormComponent&#45;&gt;AppModule</title>
<path fill="none" stroke="black" d="M5827,-122.29C5827,-144.21 5827,-178 5827,-178 5827,-178 3400.71,-178 3400.71,-178"/>
<polygon fill="black" stroke="black" points="3400.71,-174.5 3390.71,-178 3400.71,-181.5 3400.71,-174.5"/>
</g>
<!-- AddAuthorHaikuComponent -->
<g id="node3" class="node">
<title>AddAuthorHaikuComponent</title>
<polygon fill="#ffffb3" stroke="black" points="5721.81,-122 5542.19,-122 5542.19,-86 5721.81,-86 5721.81,-122"/>
<text text-anchor="middle" x="5632" y="-99.8" font-family="Times,serif" font-size="14.00">AddAuthorHaikuComponent</text>
</g>
<!-- AddAuthorHaikuComponent&#45;&gt;AppModule -->
<g id="edge3" class="edge">
<title>AddAuthorHaikuComponent&#45;&gt;AppModule</title>
<path fill="none" stroke="black" d="M5632,-122.17C5632,-143.5 5632,-176 5632,-176 5632,-176 3401.07,-176 3401.07,-176"/>
<polygon fill="black" stroke="black" points="3401.07,-172.5 3391.07,-176 3401.07,-179.5 3401.07,-172.5"/>
</g>
<!-- AddAuthorHaikuFormComponent -->
<g id="node4" class="node">
<title>AddAuthorHaikuFormComponent</title>
<polygon fill="#ffffb3" stroke="black" points="5524.64,-122 5315.36,-122 5315.36,-86 5524.64,-86 5524.64,-122"/>
<text text-anchor="middle" x="5420" y="-99.8" font-family="Times,serif" font-size="14.00">AddAuthorHaikuFormComponent</text>
</g>
<!-- AddAuthorHaikuFormComponent&#45;&gt;AppModule -->
<g id="edge4" class="edge">
<title>AddAuthorHaikuFormComponent&#45;&gt;AppModule</title>
<path fill="none" stroke="black" d="M5420,-122.03C5420,-142.77 5420,-174 5420,-174 5420,-174 3400.84,-174 3400.84,-174"/>
<polygon fill="black" stroke="black" points="3400.84,-170.5 3390.84,-174 3400.84,-177.5 3400.84,-170.5"/>
</g>
<!-- AddUserHaikuComponent -->
<g id="node5" class="node">
<title>AddUserHaikuComponent</title>
<polygon fill="#ffffb3" stroke="black" points="5297.08,-122 5130.92,-122 5130.92,-86 5297.08,-86 5297.08,-122"/>
<text text-anchor="middle" x="5214" y="-99.8" font-family="Times,serif" font-size="14.00">AddUserHaikuComponent</text>
</g>
<!-- AddUserHaikuComponent&#45;&gt;AppModule -->
<g id="edge5" class="edge">
<title>AddUserHaikuComponent&#45;&gt;AppModule</title>
<path fill="none" stroke="black" d="M5214,-122.22C5214,-142.37 5214,-172 5214,-172 5214,-172 3401.01,-172 3401.01,-172"/>
<polygon fill="black" stroke="black" points="3401.01,-168.5 3391.01,-172 3401.01,-175.5 3401.01,-168.5"/>
</g>
<!-- AddUserHaikuFormComponent -->
<g id="node6" class="node">
<title>AddUserHaikuFormComponent</title>
<polygon fill="#ffffb3" stroke="black" points="5113.41,-122 4916.59,-122 4916.59,-86 5113.41,-86 5113.41,-122"/>
<text text-anchor="middle" x="5015" y="-99.8" font-family="Times,serif" font-size="14.00">AddUserHaikuFormComponent</text>
</g>
<!-- AddUserHaikuFormComponent&#45;&gt;AppModule -->
<g id="edge6" class="edge">
<title>AddUserHaikuFormComponent&#45;&gt;AppModule</title>
<path fill="none" stroke="black" d="M5015,-122.03C5015,-141.58 5015,-170 5015,-170 5015,-170 3401.02,-170 3401.02,-170"/>
<polygon fill="black" stroke="black" points="3401.02,-166.5 3391.02,-170 3401.02,-173.5 3401.02,-166.5"/>
</g>
<!-- AllAuthorHaikusComponent -->
<g id="node7" class="node">
<title>AllAuthorHaikusComponent</title>
<polygon fill="#ffffb3" stroke="black" points="4899.04,-122 4720.96,-122 4720.96,-86 4899.04,-86 4899.04,-122"/>
<text text-anchor="middle" x="4810" y="-99.8" font-family="Times,serif" font-size="14.00">AllAuthorHaikusComponent</text>
</g>
<!-- AllAuthorHaikusComponent&#45;&gt;AppModule -->
<g id="edge7" class="edge">
<title>AllAuthorHaikusComponent&#45;&gt;AppModule</title>
<path fill="none" stroke="black" d="M4810,-122.11C4810,-141.34 4810,-169 4810,-169 4810,-169 3400.76,-169 3400.76,-169"/>
<polygon fill="black" stroke="black" points="3400.76,-165.5 3390.76,-169 3400.76,-172.5 3400.76,-165.5"/>
</g>
<!-- AllAuthorsComponent -->
<g id="node8" class="node">
<title>AllAuthorsComponent</title>
<polygon fill="#ffffb3" stroke="black" points="4703.32,-122 4558.68,-122 4558.68,-86 4703.32,-86 4703.32,-122"/>
<text text-anchor="middle" x="4631" y="-99.8" font-family="Times,serif" font-size="14.00">AllAuthorsComponent</text>
</g>
<!-- AllAuthorsComponent&#45;&gt;AppModule -->
<g id="edge8" class="edge">
<title>AllAuthorsComponent&#45;&gt;AppModule</title>
<path fill="none" stroke="black" d="M4631,-122.22C4631,-140.83 4631,-167 4631,-167 4631,-167 3400.93,-167 3400.93,-167"/>
<polygon fill="black" stroke="black" points="3400.93,-163.5 3390.93,-167 3400.93,-170.5 3400.93,-163.5"/>
</g>
<!-- AllUserHaikusComponent -->
<g id="node9" class="node">
<title>AllUserHaikusComponent</title>
<polygon fill="#ffffb3" stroke="black" points="4540.8,-122 4375.2,-122 4375.2,-86 4540.8,-86 4540.8,-122"/>
<text text-anchor="middle" x="4458" y="-99.8" font-family="Times,serif" font-size="14.00">AllUserHaikusComponent</text>
</g>
<!-- AllUserHaikusComponent&#45;&gt;AppModule -->
<g id="edge9" class="edge">
<title>AllUserHaikusComponent&#45;&gt;AppModule</title>
<path fill="none" stroke="black" d="M4458,-122.3C4458,-140.27 4458,-165 4458,-165 4458,-165 3400.78,-165 3400.78,-165"/>
<polygon fill="black" stroke="black" points="3400.78,-161.5 3390.78,-165 3400.78,-168.5 3400.78,-161.5"/>
</g>
<!-- AllUsersComponent -->
<g id="node10" class="node">
<title>AllUsersComponent</title>
<polygon fill="#ffffb3" stroke="black" points="4357.59,-122 4226.41,-122 4226.41,-86 4357.59,-86 4357.59,-122"/>
<text text-anchor="middle" x="4292" y="-99.8" font-family="Times,serif" font-size="14.00">AllUsersComponent</text>
</g>
<!-- AllUsersComponent&#45;&gt;AppModule -->
<g id="edge10" class="edge">
<title>AllUsersComponent&#45;&gt;AppModule</title>
<path fill="none" stroke="black" d="M4292,-122.02C4292,-139.37 4292,-163 4292,-163 4292,-163 3400.74,-163 3400.74,-163"/>
<polygon fill="black" stroke="black" points="3400.74,-159.5 3390.74,-163 3400.74,-166.5 3400.74,-159.5"/>
</g>
<!-- AppComponent -->
<g id="node11" class="node">
<title>AppComponent</title>
<polygon fill="#ffffb3" stroke="black" points="4208.94,-122 4103.06,-122 4103.06,-86 4208.94,-86 4208.94,-122"/>
<text text-anchor="middle" x="4156" y="-99.8" font-family="Times,serif" font-size="14.00">AppComponent</text>
</g>
<!-- AppComponent&#45;&gt;AppModule -->
<g id="edge11" class="edge">
<title>AppComponent&#45;&gt;AppModule</title>
<path fill="none" stroke="black" d="M4156,-122.04C4156,-138.73 4156,-161 4156,-161 4156,-161 3400.69,-161 3400.69,-161"/>
<polygon fill="black" stroke="black" points="3400.69,-157.5 3390.69,-161 3400.69,-164.5 3400.69,-157.5"/>
</g>
<!-- FooterComponent -->
<g id="node12" class="node">
<title>FooterComponent</title>
<polygon fill="#ffffb3" stroke="black" points="4084.88,-122 3967.12,-122 3967.12,-86 4084.88,-86 4084.88,-122"/>
<text text-anchor="middle" x="4026" y="-99.8" font-family="Times,serif" font-size="14.00">FooterComponent</text>
</g>
<!-- FooterComponent&#45;&gt;AppModule -->
<g id="edge12" class="edge">
<title>FooterComponent&#45;&gt;AppModule</title>
<path fill="none" stroke="black" d="M4026,-122.01C4026,-138.05 4026,-159 4026,-159 4026,-159 3400.84,-159 3400.84,-159"/>
<polygon fill="black" stroke="black" points="3400.84,-155.5 3390.84,-159 3400.84,-162.5 3400.84,-155.5"/>
</g>
<!-- HeaderComponent -->
<g id="node13" class="node">
<title>HeaderComponent</title>
<polygon fill="#ffffb3" stroke="black" points="3948.74,-122 3827.26,-122 3827.26,-86 3948.74,-86 3948.74,-122"/>
<text text-anchor="middle" x="3888" y="-99.8" font-family="Times,serif" font-size="14.00">HeaderComponent</text>
</g>
<!-- HeaderComponent&#45;&gt;AppModule -->
<g id="edge13" class="edge">
<title>HeaderComponent&#45;&gt;AppModule</title>
<path fill="none" stroke="black" d="M3888,-122.24C3888,-137.57 3888,-157 3888,-157 3888,-157 3400.85,-157 3400.85,-157"/>
<polygon fill="black" stroke="black" points="3400.85,-153.5 3390.85,-157 3400.85,-160.5 3400.85,-153.5"/>
</g>
<!-- HomeComponent -->
<g id="node14" class="node">
<title>HomeComponent</title>
<polygon fill="#ffffb3" stroke="black" points="3808.55,-122 3693.45,-122 3693.45,-86 3808.55,-86 3808.55,-122"/>
<text text-anchor="middle" x="3751" y="-99.8" font-family="Times,serif" font-size="14.00">HomeComponent</text>
</g>
<!-- HomeComponent&#45;&gt;AppModule -->
<g id="edge14" class="edge">
<title>HomeComponent&#45;&gt;AppModule</title>
<path fill="none" stroke="black" d="M3751,-122.12C3751,-136.78 3751,-155 3751,-155 3751,-155 3400.88,-155 3400.88,-155"/>
<polygon fill="black" stroke="black" points="3400.88,-151.5 3390.88,-155 3400.88,-158.5 3400.88,-151.5"/>
</g>
<!-- IsAuthorizedDirective -->
<g id="node15" class="node">
<title>IsAuthorizedDirective</title>
<polygon fill="#ffffb3" stroke="black" points="3675.67,-122 3534.33,-122 3534.33,-86 3675.67,-86 3675.67,-122"/>
<text text-anchor="middle" x="3605" y="-99.8" font-family="Times,serif" font-size="14.00">IsAuthorizedDirective</text>
</g>
<!-- IsAuthorizedDirective&#45;&gt;AppModule -->
<g id="edge15" class="edge">
<title>IsAuthorizedDirective&#45;&gt;AppModule</title>
<path fill="none" stroke="black" d="M3543.94,-122.25C3543.94,-136.18 3543.94,-153 3543.94,-153 3543.94,-153 3400.82,-153 3400.82,-153"/>
<polygon fill="black" stroke="black" points="3400.82,-149.5 3390.82,-153 3400.82,-156.5 3400.82,-149.5"/>
</g>
<!-- IsUnAuthenticatedDirective -->
<g id="node16" class="node">
<title>IsUnAuthenticatedDirective</title>
<polygon fill="#ffffb3" stroke="black" points="3516.82,-122 3343.18,-122 3343.18,-86 3516.82,-86 3516.82,-122"/>
<text text-anchor="middle" x="3430" y="-99.8" font-family="Times,serif" font-size="14.00">IsUnAuthenticatedDirective</text>
</g>
<!-- IsUnAuthenticatedDirective&#45;&gt;AppModule -->
<g id="edge16" class="edge">
<title>IsUnAuthenticatedDirective&#45;&gt;AppModule</title>
<path fill="none" stroke="black" d="M3366.96,-122.11C3366.96,-122.11 3366.96,-140.99 3366.96,-140.99"/>
<polygon fill="black" stroke="black" points="3363.46,-140.99 3366.96,-150.99 3370.46,-140.99 3363.46,-140.99"/>
</g>
<!-- LoginComponent -->
<g id="node17" class="node">
<title>LoginComponent</title>
<polygon fill="#ffffb3" stroke="black" points="3325.28,-122 3210.72,-122 3210.72,-86 3325.28,-86 3325.28,-122"/>
<text text-anchor="middle" x="3268" y="-99.8" font-family="Times,serif" font-size="14.00">LoginComponent</text>
</g>
<!-- LoginComponent&#45;&gt;AppModule -->
<g id="edge17" class="edge">
<title>LoginComponent&#45;&gt;AppModule</title>
<path fill="none" stroke="black" d="M3316.28,-122.11C3316.28,-122.11 3316.28,-140.99 3316.28,-140.99"/>
<polygon fill="black" stroke="black" points="3312.78,-140.99 3316.28,-150.99 3319.78,-140.99 3312.78,-140.99"/>
</g>
<!-- LoginFormComponent -->
<g id="node18" class="node">
<title>LoginFormComponent</title>
<polygon fill="#ffffb3" stroke="black" points="3192.61,-122 3047.39,-122 3047.39,-86 3192.61,-86 3192.61,-122"/>
<text text-anchor="middle" x="3120" y="-99.8" font-family="Times,serif" font-size="14.00">LoginFormComponent</text>
</g>
<!-- LoginFormComponent&#45;&gt;AppModule -->
<g id="edge18" class="edge">
<title>LoginFormComponent&#45;&gt;AppModule</title>
<path fill="none" stroke="black" d="M3136.95,-122.25C3136.95,-136.18 3136.95,-153 3136.95,-153 3136.95,-153 3297.11,-153 3297.11,-153"/>
<polygon fill="black" stroke="black" points="3297.11,-156.5 3307.11,-153 3297.11,-149.5 3297.11,-156.5"/>
</g>
<!-- NotFoundComponent -->
<g id="node19" class="node">
<title>NotFoundComponent</title>
<polygon fill="#ffffb3" stroke="black" points="3029.11,-122 2890.89,-122 2890.89,-86 3029.11,-86 3029.11,-122"/>
<text text-anchor="middle" x="2960" y="-99.8" font-family="Times,serif" font-size="14.00">NotFoundComponent</text>
</g>
<!-- NotFoundComponent&#45;&gt;AppModule -->
<g id="edge19" class="edge">
<title>NotFoundComponent&#45;&gt;AppModule</title>
<path fill="none" stroke="black" d="M2960,-122.12C2960,-136.78 2960,-155 2960,-155 2960,-155 3297,-155 3297,-155"/>
<polygon fill="black" stroke="black" points="3297,-158.5 3307,-155 3297,-151.5 3297,-158.5"/>
</g>
<!-- ProfileComponent -->
<g id="node20" class="node">
<title>ProfileComponent</title>
<polygon fill="#ffffb3" stroke="black" points="2872.93,-122 2753.07,-122 2753.07,-86 2872.93,-86 2872.93,-122"/>
<text text-anchor="middle" x="2813" y="-99.8" font-family="Times,serif" font-size="14.00">ProfileComponent</text>
</g>
<!-- ProfileComponent&#45;&gt;AppModule -->
<g id="edge20" class="edge">
<title>ProfileComponent&#45;&gt;AppModule</title>
<path fill="none" stroke="black" d="M2813,-122.24C2813,-137.57 2813,-157 2813,-157 2813,-157 3296.94,-157 3296.94,-157"/>
<polygon fill="black" stroke="black" points="3296.94,-160.5 3306.94,-157 3296.94,-153.5 3296.94,-160.5"/>
</g>
<!-- RegisterComponent -->
<g id="node21" class="node">
<title>RegisterComponent</title>
<polygon fill="#ffffb3" stroke="black" points="2734.98,-122 2607.02,-122 2607.02,-86 2734.98,-86 2734.98,-122"/>
<text text-anchor="middle" x="2671" y="-99.8" font-family="Times,serif" font-size="14.00">RegisterComponent</text>
</g>
<!-- RegisterComponent&#45;&gt;AppModule -->
<g id="edge21" class="edge">
<title>RegisterComponent&#45;&gt;AppModule</title>
<path fill="none" stroke="black" d="M2671,-122.01C2671,-138.05 2671,-159 2671,-159 2671,-159 3297.1,-159 3297.1,-159"/>
<polygon fill="black" stroke="black" points="3297.1,-162.5 3307.1,-159 3297.1,-155.5 3297.1,-162.5"/>
</g>
<!-- RegisterFormComponent -->
<g id="node22" class="node">
<title>RegisterFormComponent</title>
<polygon fill="#ffffb3" stroke="black" points="2589.32,-122 2430.68,-122 2430.68,-86 2589.32,-86 2589.32,-122"/>
<text text-anchor="middle" x="2510" y="-99.8" font-family="Times,serif" font-size="14.00">RegisterFormComponent</text>
</g>
<!-- RegisterFormComponent&#45;&gt;AppModule -->
<g id="edge22" class="edge">
<title>RegisterFormComponent&#45;&gt;AppModule</title>
<path fill="none" stroke="black" d="M2510,-122.04C2510,-138.73 2510,-161 2510,-161 2510,-161 3297.11,-161 3297.11,-161"/>
<polygon fill="black" stroke="black" points="3297.11,-164.5 3307.11,-161 3297.11,-157.5 3297.11,-164.5"/>
</g>
<!-- SingleAuthorComponent -->
<g id="node23" class="node">
<title>SingleAuthorComponent</title>
<polygon fill="#ffffb3" stroke="black" points="2412.27,-122 2255.73,-122 2255.73,-86 2412.27,-86 2412.27,-122"/>
<text text-anchor="middle" x="2334" y="-99.8" font-family="Times,serif" font-size="14.00">SingleAuthorComponent</text>
</g>
<!-- SingleAuthorComponent&#45;&gt;AppModule -->
<g id="edge23" class="edge">
<title>SingleAuthorComponent&#45;&gt;AppModule</title>
<path fill="none" stroke="black" d="M2334,-122.02C2334,-139.37 2334,-163 2334,-163 2334,-163 3297.32,-163 3297.32,-163"/>
<polygon fill="black" stroke="black" points="3297.32,-166.5 3307.32,-163 3297.32,-159.5 3297.32,-166.5"/>
</g>
<!-- SingleAuthorHaikuComponent -->
<g id="node24" class="node">
<title>SingleAuthorHaikuComponent</title>
<polygon fill="#ffffb3" stroke="black" points="2237.48,-122 2046.52,-122 2046.52,-86 2237.48,-86 2237.48,-122"/>
<text text-anchor="middle" x="2142" y="-99.8" font-family="Times,serif" font-size="14.00">SingleAuthorHaikuComponent</text>
</g>
<!-- SingleAuthorHaikuComponent&#45;&gt;AppModule -->
<g id="edge24" class="edge">
<title>SingleAuthorHaikuComponent&#45;&gt;AppModule</title>
<path fill="none" stroke="black" d="M2142,-122.3C2142,-140.27 2142,-165 2142,-165 2142,-165 3297.1,-165 3297.1,-165"/>
<polygon fill="black" stroke="black" points="3297.1,-168.5 3307.1,-165 3297.1,-161.5 3297.1,-168.5"/>
</g>
<!-- SingleUserComponent -->
<g id="node25" class="node">
<title>SingleUserComponent</title>
<polygon fill="#ffffb3" stroke="black" points="2028.54,-122 1885.46,-122 1885.46,-86 2028.54,-86 2028.54,-122"/>
<text text-anchor="middle" x="1957" y="-99.8" font-family="Times,serif" font-size="14.00">SingleUserComponent</text>
</g>
<!-- SingleUserComponent&#45;&gt;AppModule -->
<g id="edge25" class="edge">
<title>SingleUserComponent&#45;&gt;AppModule</title>
<path fill="none" stroke="black" d="M1957,-122.22C1957,-140.83 1957,-167 1957,-167 1957,-167 3297.34,-167 3297.34,-167"/>
<polygon fill="black" stroke="black" points="3297.34,-170.5 3307.34,-167 3297.34,-163.5 3297.34,-170.5"/>
</g>
<!-- SingleUserHaikuComponent -->
<g id="node26" class="node">
<title>SingleUserHaikuComponent</title>
<polygon fill="#ffffb3" stroke="black" points="1866.75,-122 1689.25,-122 1689.25,-86 1866.75,-86 1866.75,-122"/>
<text text-anchor="middle" x="1778" y="-99.8" font-family="Times,serif" font-size="14.00">SingleUserHaikuComponent</text>
</g>
<!-- SingleUserHaikuComponent&#45;&gt;AppModule -->
<g id="edge26" class="edge">
<title>SingleUserHaikuComponent&#45;&gt;AppModule</title>
<path fill="none" stroke="black" d="M1778,-122.11C1778,-141.34 1778,-169 1778,-169 1778,-169 3296.98,-169 3296.98,-169"/>
<polygon fill="black" stroke="black" points="3296.98,-172.5 3306.98,-169 3296.98,-165.5 3296.98,-172.5"/>
</g>
<!-- UpdateAuthorComponent -->
<g id="node27" class="node">
<title>UpdateAuthorComponent</title>
<polygon fill="#ffffb3" stroke="black" points="1670.92,-122 1509.08,-122 1509.08,-86 1670.92,-86 1670.92,-122"/>
<text text-anchor="middle" x="1590" y="-99.8" font-family="Times,serif" font-size="14.00">UpdateAuthorComponent</text>
</g>
<!-- UpdateAuthorComponent&#45;&gt;AppModule -->
<g id="edge27" class="edge">
<title>UpdateAuthorComponent&#45;&gt;AppModule</title>
<path fill="none" stroke="black" d="M1590,-122.03C1590,-141.58 1590,-170 1590,-170 1590,-170 3297.25,-170 3297.25,-170"/>
<polygon fill="black" stroke="black" points="3297.25,-173.5 3307.25,-170 3297.25,-166.5 3297.25,-173.5"/>
</g>
<!-- UpdateAuthorFormComponent -->
<g id="node28" class="node">
<title>UpdateAuthorFormComponent</title>
<polygon fill="#ffffb3" stroke="black" points="1490.75,-122 1299.25,-122 1299.25,-86 1490.75,-86 1490.75,-122"/>
<text text-anchor="middle" x="1395" y="-99.8" font-family="Times,serif" font-size="14.00">UpdateAuthorFormComponent</text>
</g>
<!-- UpdateAuthorFormComponent&#45;&gt;AppModule -->
<g id="edge28" class="edge">
<title>UpdateAuthorFormComponent&#45;&gt;AppModule</title>
<path fill="none" stroke="black" d="M1395,-122.22C1395,-142.37 1395,-172 1395,-172 1395,-172 3297.28,-172 3297.28,-172"/>
<polygon fill="black" stroke="black" points="3297.28,-175.5 3307.28,-172 3297.28,-168.5 3297.28,-175.5"/>
</g>
<!-- UpdateAuthorHaikuComponent -->
<g id="node29" class="node">
<title>UpdateAuthorHaikuComponent</title>
<polygon fill="#ffffb3" stroke="black" points="1280.63,-122 1085.37,-122 1085.37,-86 1280.63,-86 1280.63,-122"/>
<text text-anchor="middle" x="1183" y="-99.8" font-family="Times,serif" font-size="14.00">UpdateAuthorHaikuComponent</text>
</g>
<!-- UpdateAuthorHaikuComponent&#45;&gt;AppModule -->
<g id="edge29" class="edge">
<title>UpdateAuthorHaikuComponent&#45;&gt;AppModule</title>
<path fill="none" stroke="black" d="M1183,-122.03C1183,-142.77 1183,-174 1183,-174 1183,-174 3297.19,-174 3297.19,-174"/>
<polygon fill="black" stroke="black" points="3297.19,-177.5 3307.19,-174 3297.19,-170.5 3297.19,-177.5"/>
</g>
<!-- UpdateAuthorHaikuFormComponent -->
<g id="node30" class="node">
<title>UpdateAuthorHaikuFormComponent</title>
<polygon fill="#ffffb3" stroke="black" points="1066.96,-122 841.04,-122 841.04,-86 1066.96,-86 1066.96,-122"/>
<text text-anchor="middle" x="954" y="-99.8" font-family="Times,serif" font-size="14.00">UpdateAuthorHaikuFormComponent</text>
</g>
<!-- UpdateAuthorHaikuFormComponent&#45;&gt;AppModule -->
<g id="edge30" class="edge">
<title>UpdateAuthorHaikuFormComponent&#45;&gt;AppModule</title>
<path fill="none" stroke="black" d="M954,-122.17C954,-143.5 954,-176 954,-176 954,-176 3297.18,-176 3297.18,-176"/>
<polygon fill="black" stroke="black" points="3297.18,-179.5 3307.18,-176 3297.18,-172.5 3297.18,-179.5"/>
</g>
<!-- UpdateProfileComponent -->
<g id="node31" class="node">
<title>UpdateProfileComponent</title>
<polygon fill="#ffffb3" stroke="black" points="822.86,-122 663.14,-122 663.14,-86 822.86,-86 822.86,-122"/>
<text text-anchor="middle" x="743" y="-99.8" font-family="Times,serif" font-size="14.00">UpdateProfileComponent</text>
</g>
<!-- UpdateProfileComponent&#45;&gt;AppModule -->
<g id="edge31" class="edge">
<title>UpdateProfileComponent&#45;&gt;AppModule</title>
<path fill="none" stroke="black" d="M743,-122.29C743,-144.21 743,-178 743,-178 743,-178 3297.28,-178 3297.28,-178"/>
<polygon fill="black" stroke="black" points="3297.28,-181.5 3307.28,-178 3297.28,-174.5 3297.28,-181.5"/>
</g>
<!-- UpdateProfileFormComponent -->
<g id="node32" class="node">
<title>UpdateProfileFormComponent</title>
<polygon fill="#ffffb3" stroke="black" points="645.19,-122 454.81,-122 454.81,-86 645.19,-86 645.19,-122"/>
<text text-anchor="middle" x="550" y="-99.8" font-family="Times,serif" font-size="14.00">UpdateProfileFormComponent</text>
</g>
<!-- UpdateProfileFormComponent&#45;&gt;AppModule -->
<g id="edge32" class="edge">
<title>UpdateProfileFormComponent&#45;&gt;AppModule</title>
<path fill="none" stroke="black" d="M550,-122.01C550,-144.49 550,-180 550,-180 550,-180 3297.26,-180 3297.26,-180"/>
<polygon fill="black" stroke="black" points="3297.26,-183.5 3307.26,-180 3297.26,-176.5 3297.26,-183.5"/>
</g>
<!-- UpdateUserHaikuComponent -->
<g id="node33" class="node">
<title>UpdateUserHaikuComponent</title>
<polygon fill="#ffffb3" stroke="black" points="437.4,-122 254.6,-122 254.6,-86 437.4,-86 437.4,-122"/>
<text text-anchor="middle" x="346" y="-99.8" font-family="Times,serif" font-size="14.00">UpdateUserHaikuComponent</text>
</g>
<!-- UpdateUserHaikuComponent&#45;&gt;AppModule -->
<g id="edge33" class="edge">
<title>UpdateUserHaikuComponent&#45;&gt;AppModule</title>
<path fill="none" stroke="black" d="M346,-122.09C346,-145.13 346,-182 346,-182 346,-182 3297.12,-182 3297.12,-182"/>
<polygon fill="black" stroke="black" points="3297.12,-185.5 3307.12,-182 3297.12,-178.5 3297.12,-185.5"/>
</g>
<!-- UpdateUserHaikuFormComponent -->
<g id="node34" class="node">
<title>UpdateUserHaikuFormComponent</title>
<polygon fill="#ffffb3" stroke="black" points="236.23,-122 23.77,-122 23.77,-86 236.23,-86 236.23,-122"/>
<text text-anchor="middle" x="130" y="-99.8" font-family="Times,serif" font-size="14.00">UpdateUserHaikuFormComponent</text>
</g>
<!-- UpdateUserHaikuFormComponent&#45;&gt;AppModule -->
<g id="edge34" class="edge">
<title>UpdateUserHaikuFormComponent&#45;&gt;AppModule</title>
<path fill="none" stroke="black" d="M130,-122.15C130,-145.76 130,-184 130,-184 130,-184 3297.12,-184 3297.12,-184"/>
<polygon fill="black" stroke="black" points="3297.12,-187.5 3307.12,-184 3297.12,-180.5 3297.12,-187.5"/>
</g>
<!-- IsAuthorizedDirective  -->
<g id="node37" class="node">
<title>IsAuthorizedDirective </title>
<polygon fill="#fb8072" stroke="black" points="3421.17,-252 3276.83,-252 3276.83,-216 3421.17,-216 3421.17,-252"/>
<text text-anchor="middle" x="3349" y="-229.8" font-family="Times,serif" font-size="14.00">IsAuthorizedDirective </text>
</g>
<!-- AppModule&#45;&gt;IsAuthorizedDirective  -->
<g id="edge36" class="edge">
<title>AppModule&#45;&gt;IsAuthorizedDirective </title>
<path fill="none" stroke="black" stroke-dasharray="5,2" d="M3349,-187.11C3349,-187.11 3349,-205.99 3349,-205.99"/>
<polygon fill="black" stroke="black" points="3345.5,-205.99 3349,-215.99 3352.5,-205.99 3345.5,-205.99"/>
</g>
<!-- IsUnAuthenticatedDirective  -->
<g id="node38" class="node">
<title>IsUnAuthenticatedDirective </title>
<polygon fill="#fb8072" stroke="black" points="3258.82,-252 3081.18,-252 3081.18,-216 3258.82,-216 3258.82,-252"/>
<text text-anchor="middle" x="3170" y="-229.8" font-family="Times,serif" font-size="14.00">IsUnAuthenticatedDirective </text>
</g>
<!-- AppModule&#45;&gt;IsUnAuthenticatedDirective  -->
<g id="edge37" class="edge">
<title>AppModule&#45;&gt;IsUnAuthenticatedDirective </title>
<path fill="none" stroke="black" stroke-dasharray="5,2" d="M3307.06,-186C3274.43,-186 3234.64,-186 3234.64,-186 3234.64,-186 3234.64,-205.85 3234.64,-205.85"/>
<polygon fill="black" stroke="black" points="3231.14,-205.85 3234.64,-215.85 3238.14,-205.85 3231.14,-205.85"/>
</g>
<!-- AppComponent  -->
<g id="node39" class="node">
<title>AppComponent </title>
<polygon fill="#80b1d3" stroke="black" points="3553.44,-252 3444.56,-252 3444.56,-216 3553.44,-216 3553.44,-252"/>
<text text-anchor="middle" x="3499" y="-229.8" font-family="Times,serif" font-size="14.00">AppComponent </text>
</g>
<!-- AppModule&#45;&gt;AppComponent  -->
<g id="edge38" class="edge">
<title>AppModule&#45;&gt;AppComponent </title>
<path fill="none" stroke="black" stroke-dasharray="1,5" d="M3390.68,-186C3429.27,-186 3480.72,-186 3480.72,-186 3480.72,-186 3480.72,-205.85 3480.72,-205.85"/>
<polygon fill="black" stroke="black" points="3477.22,-205.85 3480.72,-215.85 3484.22,-205.85 3477.22,-205.85"/>
</g>
<!-- AppRoutingModule -->
<g id="node36" class="node">
<title>AppRoutingModule</title>
<polygon fill="#8dd3c7" stroke="black" points="6230.27,-122 6227.27,-126 6206.27,-126 6203.27,-122 6101.73,-122 6101.73,-86 6230.27,-86 6230.27,-122"/>
<text text-anchor="middle" x="6166" y="-99.8" font-family="Times,serif" font-size="14.00">AppRoutingModule</text>
</g>
<!-- AppRoutingModule&#45;&gt;AppModule -->
<g id="edge35" class="edge">
<title>AppRoutingModule&#45;&gt;AppModule</title>
<path fill="none" stroke="black" d="M6166,-122.09C6166,-145.13 6166,-182 6166,-182 6166,-182 3400.73,-182 3400.73,-182"/>
<polygon fill="black" stroke="black" points="3400.73,-178.5 3390.73,-182 3400.73,-185.5 3400.73,-178.5"/>
</g>
<!-- AuthorizationInterceptor -->
<g id="node40" class="node">
<title>AuthorizationInterceptor</title>
<ellipse fill="#fdb462" stroke="black" cx="6361" cy="-104" rx="107.06" ry="18"/>
<text text-anchor="middle" x="6361" y="-99.8" font-family="Times,serif" font-size="14.00">AuthorizationInterceptor</text>
</g>
<!-- AuthorizationInterceptor&#45;&gt;AppModule -->
<g id="edge39" class="edge">
<title>AuthorizationInterceptor&#45;&gt;AppModule</title>
<path fill="none" stroke="black" d="M6361,-122.15C6361,-145.76 6361,-184 6361,-184 6361,-184 3400.72,-184 3400.72,-184"/>
<polygon fill="black" stroke="black" points="3400.72,-180.5 3390.72,-184 3400.72,-187.5 3400.72,-180.5"/>
</g>
</g>
</svg>
